<svg xmlns="http://www.w3.org/2000/svg" width="256" height="256" viewBox="0 0 64 64">
  <defs>
    <linearGradient id="g" x1="0" y1="0" x2="1" y2="1">
      <stop offset="0" stop-color="#4f46e5"/>
      <stop offset="1" stop-color="#22c55e"/>
    </linearGradient>
  </defs>
  <!-- Cloud -->
  <path d="M22 38c-5 0-9-4-9-9s4-9 9-9c3 0 5 1 7 3c1-4 5-7 9-7c6 0 11 5 11 11c0 0 0 1 0 1h1c5 0 9 4 9 9s-4 9-9 9H22z" fill="url(#g)" transform="scale(.8) translate(-2, -2)" opacity=".9"/>
  <!-- AI node hexagon -->
  <g transform="translate(19,19)">
    <polygon points="13,0 23,6 23,18 13,24 3,18 3,6" fill="rgba(0,0,0,.3)"/>
    <polygon points="13,2 21,7 21,17 13,22 5,17 5,7" fill="#0b1020"/>
    <circle cx="13" cy="12" r="3.2" fill="url(#g)"/>
    <g stroke="url(#g)" stroke-width="1.2" fill="none" opacity=".9">
      <path d="M13 3v6M13 15v7M6 8l5 4M20 8l-5 4M6 16l5-3M20 16l-5-3"/>
    </g>
  </g>
</svg>
